<svg width="1080" height="1080" viewBox="0 0 1080 1080" fill="none" xmlns="http://www.w3.org/2000/svg">
<rect width="1080" height="1080" transform="matrix(1 0 0 -1 0 1080)" fill="black"/>
<path d="M290 790H790V290H290V790Z" fill="black" stroke="#E2E2E2" stroke-width="70" stroke-miterlimit="11.4737"/>
<path d="M539.671 666.4C523.071 666.4 508.271 662.8 495.271 655.6C482.271 648.4 472.071 638.4 464.671 625.6C457.271 612.8 453.571 598 453.571 581.2C453.571 568.8 455.871 556.3 460.471 543.7C465.071 531.1 472.371 517.7 482.371 503.5L539.071 421H589.171L535.171 496.9L540.871 502C542.271 501.6 543.771 501.3 545.371 501.1C547.171 500.9 548.971 500.8 550.771 500.8C565.371 500.8 578.271 504.3 589.471 511.3C600.871 518.3 609.871 527.9 616.471 540.1C623.071 552.1 626.371 565.8 626.371 581.2C626.371 597.8 622.671 612.6 615.271 625.6C607.871 638.4 597.671 648.4 584.671 655.6C571.671 662.8 556.671 666.4 539.671 666.4ZM498.571 581.2C498.571 590 500.271 597.7 503.671 604.3C507.271 610.9 512.071 616 518.071 619.6C524.271 623.2 531.471 625 539.671 625C548.071 625 555.371 623.2 561.571 619.6C567.771 616 572.571 610.9 575.971 604.3C579.571 597.7 581.371 590 581.371 581.2C581.371 572.4 579.671 564.8 576.271 558.4C572.871 552 568.071 547 561.871 543.4C555.671 539.6 548.471 537.7 540.271 537.7C531.871 537.7 524.571 539.6 518.371 543.4C512.171 547 507.271 552 503.671 558.4C500.271 564.8 498.571 572.4 498.571 581.2Z" fill="#E2E2E2"/>
</svg>
