<svg width="1080" height="1080" viewBox="0 0 1080 1080" fill="none" xmlns="http://www.w3.org/2000/svg">
<rect width="1080" height="1080" transform="matrix(1 0 0 -1 0 1080)" fill="black"/>
<path d="M290 590C290 684.281 290 731.421 319.289 760.711C348.579 790 395.719 790 490 790H590C684.281 790 731.421 790 760.711 760.711C790 731.421 790 684.281 790 590V490C790 395.719 790 348.579 760.711 319.289C731.421 290 684.281 290 590 290H490C395.719 290 348.579 290 319.289 319.289C290 348.579 290 395.719 290 490V590Z" fill="black" stroke="#8C8B8B" stroke-width="40" stroke-miterlimit="11.4737"/>
</svg>
